<svg xmlns="http://www.w3.org/2000/svg" viewBox="0 0 1200 1200">
  <title>YaGlot_Logo</title>
  <rect width="1200" height="1200" fill="#00ad5f"/>
  <g>
    <path d="M482.8,884S524,989.8,630.9,1019.9s236.1-7.8,271.8-36.8S1041.3,754.7,884.9,581c-151.5-168.2-364.2-57.9-364.2-57.9s-75.7,147-60.1,290.7v4.5s-2.2-174.9,152.6-212.7S834.8,701.3,841.5,718,883.8,843.9,810.3,923,571.9,1034.4,482.8,884Z" fill="#fff"/>
    <path d="M891.6,1013.2s-80.2,118.1-248.4,114.7S357.5,997.5,326.9,897.4s-16.7-191.6,16.7-296.3S454.9,357.1,465,323.7s41.2-117,26.7-186,53.5-23.4,56.8,63.5-30.1,202.7-45.7,251.7-95.8,264-72.4,377.6S534,1019.9,584.2,1038.8s84.3,29.7,178.2,18.3C827.4,1049.2,891.6,1013.2,891.6,1013.2Z" fill="#fff"/>
    <path d="M281.2,896.2s-60.1-200.5,79.1-440S439.4,88.7,439.4,88.7s-4.5,145.9-64.6,242.8S158.7,654.5,281.2,896.2Z" fill="#fff"/>
  </g>
</svg>
